<svg width="499" height="201" viewBox="0 0 499 201" fill="none" xmlns="http://www.w3.org/2000/svg">
<path d="M144.15 142.152C138.774 142.152 133.953 141.256 129.686 139.464C125.42 137.587 122.049 135.027 119.574 131.784C117.1 128.456 115.734 124.659 115.478 120.392H127.51C127.852 123.891 129.473 126.749 132.374 128.968C135.361 131.187 139.244 132.296 144.022 132.296C148.46 132.296 151.958 131.315 154.518 129.352C157.078 127.389 158.358 124.915 158.358 121.928C158.358 118.856 156.993 116.595 154.262 115.144C151.532 113.608 147.308 112.115 141.59 110.664C136.385 109.299 132.118 107.933 128.79 106.568C125.548 105.117 122.732 103.027 120.342 100.296C118.038 97.48 116.886 93.8107 116.886 89.288C116.886 85.704 117.953 82.4187 120.086 79.432C122.22 76.4453 125.249 74.0987 129.174 72.392C133.1 70.6 137.58 69.704 142.614 69.704C150.38 69.704 156.652 71.6667 161.43 75.592C166.209 79.5173 168.769 84.8933 169.11 91.72H157.462C157.206 88.0507 155.713 85.1067 152.982 82.888C150.337 80.6693 146.753 79.56 142.23 79.56C138.049 79.56 134.721 80.456 132.246 82.248C129.772 84.04 128.534 86.3867 128.534 89.288C128.534 91.592 129.26 93.512 130.71 95.048C132.246 96.4987 134.124 97.6933 136.342 98.632C138.646 99.4853 141.804 100.467 145.814 101.576C150.849 102.941 154.945 104.307 158.102 105.672C161.26 106.952 163.948 108.915 166.166 111.56C168.47 114.205 169.665 117.661 169.75 121.928C169.75 125.768 168.684 129.224 166.55 132.296C164.417 135.368 161.388 137.8 157.462 139.592C153.622 141.299 149.185 142.152 144.15 142.152ZM237.393 103.24C237.393 105.459 237.265 107.805 237.009 110.28H180.945C181.372 117.192 183.719 122.611 187.985 126.536C192.337 130.376 197.585 132.296 203.729 132.296C208.764 132.296 212.945 131.144 216.273 128.84C219.687 126.451 222.076 123.293 223.441 119.368H235.986C234.108 126.109 230.353 131.613 224.721 135.88C219.089 140.061 212.092 142.152 203.729 142.152C197.073 142.152 191.1 140.659 185.809 137.672C180.604 134.685 176.508 130.461 173.521 125C170.535 119.453 169.041 113.053 169.041 105.8C169.041 98.5467 170.492 92.1893 173.393 86.728C176.295 81.2667 180.348 77.0853 185.553 74.184C190.844 71.1973 196.903 69.704 203.729 69.704C210.385 69.704 216.273 71.1547 221.393 74.056C226.513 76.9573 230.439 80.968 233.169 86.088C235.985 91.1227 237.393 96.84 237.393 103.24ZM225.361 100.808C225.361 96.3707 224.38 92.5733 222.417 89.416C220.455 86.1733 217.767 83.7413 214.353 82.12C211.025 80.4133 207.313 79.56 203.217 79.56C197.329 79.56 192.295 81.4373 188.113 85.192C184.017 88.9467 181.671 94.152 181.073 100.808H225.361ZM235.616 105.8C235.616 98.5467 237.067 92.232 239.968 86.856C242.87 81.3947 246.88 77.1707 252 74.184C257.206 71.1973 263.136 69.704 269.792 69.704C278.411 69.704 285.494 71.7947 291.04 75.976C296.673 80.1573 300.385 85.96 302.176 93.384H289.632C288.438 89.1173 286.091 85.7467 282.592 83.272C279.179 80.7973 274.912 79.56 269.792 79.56C263.136 79.56 257.76 81.864 253.664 86.472C249.568 90.9947 247.52 97.4373 247.52 105.8C247.52 114.248 249.568 120.776 253.664 125.384C257.76 129.992 263.136 132.296 269.792 132.296C274.912 132.296 279.179 131.101 282.592 128.712C286.006 126.323 288.352 122.909 289.632 118.472H302.176C300.299 125.64 296.544 131.4 290.912 135.752C285.28 140.019 278.24 142.152 269.792 142.152C263.136 142.152 257.206 140.659 252 137.672C246.88 134.685 242.87 130.461 239.968 125C237.067 119.539 235.616 113.139 235.616 105.8ZM319.127 80.456V121.8C319.127 125.213 319.852 127.645 321.303 129.096C322.753 130.461 325.271 131.144 328.854 131.144H337.431V141H326.935C320.449 141 315.585 139.507 312.343 136.52C309.1 133.533 307.479 128.627 307.479 121.8V80.456H298.391V70.856H307.479V53.192H319.127V70.856H337.431V80.456H319.127ZM344.759 59.464C342.541 59.464 340.663 58.696 339.127 57.16C337.591 55.624 336.823 53.7467 336.823 51.528C336.823 49.3093 337.591 47.432 339.127 45.896C340.663 44.36 342.541 43.592 344.759 43.592C346.893 43.592 348.685 44.36 350.135 45.896C351.671 47.432 352.439 49.3093 352.439 51.528C352.439 53.7467 351.671 55.624 350.135 57.16C348.685 58.696 346.893 59.464 344.759 59.464ZM350.391 70.856V141H338.743V70.856H350.391ZM388.035 142.152C381.465 142.152 375.491 140.659 370.115 137.672C364.825 134.685 360.643 130.461 357.571 125C354.585 119.453 353.091 113.053 353.091 105.8C353.091 98.632 354.627 92.3173 357.699 86.856C360.857 81.3093 365.123 77.0853 370.499 74.184C375.875 71.1973 381.891 69.704 388.547 69.704C395.203 69.704 401.219 71.1973 406.595 74.184C411.971 77.0853 416.195 81.2667 419.267 86.728C422.425 92.1893 424.003 98.5467 424.003 105.8C424.003 113.053 422.382 119.453 419.139 125C415.982 130.461 411.673 134.685 406.211 137.672C400.75 140.659 394.691 142.152 388.035 142.152ZM388.035 131.912C392.217 131.912 396.142 130.931 399.811 128.968C403.481 127.005 406.425 124.061 408.643 120.136C410.947 116.211 412.099 111.432 412.099 105.8C412.099 100.168 410.99 95.3893 408.771 91.464C406.553 87.5387 403.651 84.6373 400.067 82.76C396.483 80.7973 392.601 79.816 388.419 79.816C384.153 79.816 380.227 80.7973 376.643 82.76C373.145 84.6373 370.329 87.5387 368.195 91.464C366.062 95.3893 364.995 100.168 364.995 105.8C364.995 111.517 366.019 116.339 368.067 120.264C370.201 124.189 373.017 127.133 376.515 129.096C380.014 130.973 383.854 131.912 388.035 131.912ZM460.695 69.576C469.228 69.576 476.14 72.1787 481.431 77.384C486.721 82.504 489.367 89.928 489.367 99.656V141H477.847V101.32C477.847 94.3227 476.097 88.9893 472.599 85.32C469.1 81.5653 464.321 79.688 458.263 79.688C452.119 79.688 447.212 81.608 443.543 85.448C439.959 89.288 438.167 94.8773 438.167 102.216V141H426.519V70.856H438.167V80.84C440.471 77.256 443.585 74.4827 447.511 72.52C451.521 70.5573 455.916 69.576 460.695 69.576Z" fill="white"/>
<circle cx="54.5" cy="95.5" r="54.5" fill="white"/>
<path d="M33.8935 76.912V56.56H69.3495V150H46.5655V76.912H33.8935Z" fill="black"/>
</svg>
